<svg display="none" xmlns="http://www.w3.org/2000/svg" >
    <symbol viewBox="0 0 81 24" fill="none" id="logo-icon" >
        <path d="M10.15 1.76007H14.02L23.26 23.0001H17.98L16.15 18.5001H7.89997L6.12997 23.0001H0.969971L10.15 1.76007ZM11.95 7.94007L9.36997 14.5401H14.56L11.95 7.94007Z" fill="#01996D"/>
        <path d="M24.8863 0.320068H29.3863V23.0001H24.8863V0.320068Z" fill="#01996D"/>
        <path d="M32.6793 8.42007H37.1793V23.0001H32.6793V8.42007ZM32.3193 3.83007C32.3193 3.11007 32.5693 2.50007 33.0693 2.00007C33.5893 1.48007 34.2093 1.22007 34.9293 1.22007C35.6493 1.22007 36.2593 1.48007 36.7593 2.00007C37.2793 2.50007 37.5393 3.11007 37.5393 3.83007C37.5393 4.55007 37.2793 5.17007 36.7593 5.69007C36.2593 6.19007 35.6493 6.44007 34.9293 6.44007C34.2093 6.44007 33.5893 6.19007 33.0693 5.69007C32.5693 5.17007 32.3193 4.55007 32.3193 3.83007Z" fill="#01996D"/>
        <path d="M38.8822 8.42007H43.7422L47.4322 18.3201H47.4922L50.9122 8.42007H55.4422L49.6822 23.0001H44.9122L38.8822 8.42007Z" fill="#01996D"/>
        <path d="M57.1422 8.42007H61.6422V23.0001H57.1422V8.42007ZM56.7822 3.83007C56.7822 3.11007 57.0322 2.50007 57.5322 2.00007C58.0522 1.48007 58.6722 1.22007 59.3922 1.22007C60.1122 1.22007 60.7222 1.48007 61.2222 2.00007C61.7422 2.50007 62.0022 3.11007 62.0022 3.83007C62.0022 4.55007 61.7422 5.17007 61.2222 5.69007C60.7222 6.19007 60.1122 6.44007 59.3922 6.44007C58.6722 6.44007 58.0522 6.19007 57.5322 5.69007C57.0322 5.17007 56.7822 4.55007 56.7822 3.83007Z" fill="#01996D"/>
        <path d="M64.3351 15.7101C64.3351 14.5501 64.5451 13.5001 64.9651 12.5601C65.3851 11.6201 65.9551 10.8201 66.6751 10.1601C67.4151 9.48007 68.2751 8.96007 69.2551 8.60007C70.2551 8.24007 71.3151 8.06007 72.4351 8.06007C73.5551 8.06007 74.6051 8.24007 75.5851 8.60007C76.5851 8.96007 77.4451 9.48007 78.1651 10.1601C78.9051 10.8201 79.4851 11.6201 79.9051 12.5601C80.3251 13.5001 80.5351 14.5501 80.5351 15.7101C80.5351 16.8701 80.3251 17.9201 79.9051 18.8601C79.4851 19.8001 78.9051 20.6101 78.1651 21.2901C77.4451 21.9501 76.5851 22.4601 75.5851 22.8201C74.6051 23.1801 73.5551 23.3601 72.4351 23.3601C71.3151 23.3601 70.2551 23.1801 69.2551 22.8201C68.2751 22.4601 67.4151 21.9501 66.6751 21.2901C65.9551 20.6101 65.3851 19.8001 64.9651 18.8601C64.5451 17.9201 64.3351 16.8701 64.3351 15.7101ZM68.8351 15.7101C68.8351 16.8101 69.1451 17.7001 69.7651 18.3801C70.4051 19.0601 71.2951 19.4001 72.4351 19.4001C73.5751 19.4001 74.4551 19.0601 75.0751 18.3801C75.7151 17.7001 76.0351 16.8101 76.0351 15.7101C76.0351 14.6101 75.7151 13.7201 75.0751 13.0401C74.4551 12.3601 73.5751 12.0201 72.4351 12.0201C71.2951 12.0201 70.4051 12.3601 69.7651 13.0401C69.1451 13.7201 68.8351 14.6101 68.8351 15.7101Z" fill="#01996D"/>
        
    </symbol>

    <symbol   width="71.031281" height="72.017822" viewBox="0 0 71.0313 72.0178" id="play-icon">   
        <path id="Vector" d="M35.5156 0C15.9311 0 0 16.1539 0 36.0089C0 55.8639 15.9311 72.0178 35.5156 72.0178C55.1002 72.0178 71.0313 55.8639 71.0313 36.0089C71.0313 16.1539 55.1002 0 35.5156 0ZM35.5156 69.0172C17.5641 69.0172 2.95959 54.2097 2.95959 36.0089C2.95959 17.8081 17.5641 3.0007 35.5156 3.0007C53.4671 3.0007 68.0717 17.8081 68.0717 36.0089C68.0717 54.2097 53.4671 69.0172 35.5156 69.0172Z"/>
        <path id="Vector" d="M49.635 34.7473L28.9176 21.244C28.4638 20.9437 27.8771 20.9275 27.4089 21.1883C26.9319 21.452 26.6371 21.9562 26.6371 22.5056L26.6371 49.5123C26.6371 50.0617 26.9319 50.5658 27.4089 50.8296C27.6285 50.9512 27.8742 51.0127 28.1169 51.0127C28.3944 51.0127 28.6748 50.9335 28.9176 50.7739L49.635 37.2705C50.057 36.9951 50.3142 36.5188 50.3142 36.0089C50.3142 35.499 50.057 35.0229 49.635 34.7473ZM29.5967 46.7635L29.5967 25.2544L46.0973 36.0089L29.5967 46.7635Z" />
        </symbol>
</svg>



